<svg xmlns="http://www.w3.org/2000/svg" width="1100" height="540" viewBox="0 0 1100 540" role="img" aria-label="Monthly sample revenue in INR crore. July is the highest month.">
<rect width="1100" height="540" rx="24" fill="#FFF9F0"/>
<style>text{font-family:Arial,"Segoe UI",sans-serif} .title{font-size:27px;font-weight:700;fill:#18324B} .sub{font-size:14px;fill:#587083} .label{font-size:13px;fill:#35536A} .value{font-size:14px;font-weight:700;fill:#18324B}</style>
<text x="48" y="52" class="title">Monthly Sales Trend | Sample 2023</text>
<text x="48" y="78" class="sub">Monthly sample revenue in INR crore. July is the highest month.</text>
<line x1="105" y1="430.0" x2="1055" y2="430.0" stroke="#E8DED0" stroke-width="1"/>
<text x="91" y="435.0" text-anchor="end" class="label">₹0.0 Cr</text>
<line x1="105" y1="370.4" x2="1055" y2="370.4" stroke="#E8DED0" stroke-width="1"/>
<text x="91" y="375.4" text-anchor="end" class="label">₹0.8 Cr</text>
<line x1="105" y1="310.8" x2="1055" y2="310.8" stroke="#E8DED0" stroke-width="1"/>
<text x="91" y="315.8" text-anchor="end" class="label">₹1.6 Cr</text>
<line x1="105" y1="251.2" x2="1055" y2="251.2" stroke="#E8DED0" stroke-width="1"/>
<text x="91" y="256.2" text-anchor="end" class="label">₹2.4 Cr</text>
<line x1="105" y1="191.6" x2="1055" y2="191.6" stroke="#E8DED0" stroke-width="1"/>
<text x="91" y="196.6" text-anchor="end" class="label">₹3.2 Cr</text>
<line x1="105" y1="132.0" x2="1055" y2="132.0" stroke="#E8DED0" stroke-width="1"/>
<text x="91" y="137.0" text-anchor="end" class="label">₹4.0 Cr</text>
<text x="105.0" y="460" text-anchor="middle" class="label">Jan</text>
<text x="191.4" y="460" text-anchor="middle" class="label">Feb</text>
<text x="277.7" y="460" text-anchor="middle" class="label">Mar</text>
<text x="364.1" y="460" text-anchor="middle" class="label">Apr</text>
<text x="450.5" y="460" text-anchor="middle" class="label">May</text>
<text x="536.8" y="460" text-anchor="middle" class="label">Jun</text>
<text x="623.2" y="460" text-anchor="middle" class="label">Jul</text>
<text x="709.5" y="460" text-anchor="middle" class="label">Aug</text>
<text x="795.9" y="460" text-anchor="middle" class="label">Sep</text>
<text x="882.3" y="460" text-anchor="middle" class="label">Oct</text>
<text x="968.6" y="460" text-anchor="middle" class="label">Nov</text>
<text x="1055.0" y="460" text-anchor="middle" class="label">Dec</text>
<polygon points="105,430 105.0,179.7 191.4,259.6 277.7,178.0 364.1,205.3 450.5,189.8 536.8,226.4 623.2,153.6 709.5,219.6 795.9,235.2 882.3,179.8 968.6,191.6 1055.0,216.7 1055,430" fill="#E87524" opacity="0.10"/>
<polyline points="105.0,179.7 191.4,259.6 277.7,178.0 364.1,205.3 450.5,189.8 536.8,226.4 623.2,153.6 709.5,219.6 795.9,235.2 882.3,179.8 968.6,191.6 1055.0,216.7" fill="none" stroke="#E87524" stroke-width="4" stroke-linejoin="round" stroke-linecap="round"/>
<circle cx="105.0" cy="179.7" r="5" fill="#16845B" stroke="#FFF9F0" stroke-width="3"/>
<circle cx="191.4" cy="259.6" r="5" fill="#16845B" stroke="#FFF9F0" stroke-width="3"/>
<circle cx="277.7" cy="178.0" r="5" fill="#16845B" stroke="#FFF9F0" stroke-width="3"/>
<circle cx="364.1" cy="205.3" r="5" fill="#16845B" stroke="#FFF9F0" stroke-width="3"/>
<circle cx="450.5" cy="189.8" r="5" fill="#16845B" stroke="#FFF9F0" stroke-width="3"/>
<circle cx="536.8" cy="226.4" r="5" fill="#16845B" stroke="#FFF9F0" stroke-width="3"/>
<circle cx="623.2" cy="153.6" r="7" fill="#E87524" stroke="#FFF9F0" stroke-width="3"/>
<circle cx="709.5" cy="219.6" r="5" fill="#16845B" stroke="#FFF9F0" stroke-width="3"/>
<circle cx="795.9" cy="235.2" r="5" fill="#16845B" stroke="#FFF9F0" stroke-width="3"/>
<circle cx="882.3" cy="179.8" r="5" fill="#16845B" stroke="#FFF9F0" stroke-width="3"/>
<circle cx="968.6" cy="191.6" r="5" fill="#16845B" stroke="#FFF9F0" stroke-width="3"/>
<circle cx="1055.0" cy="216.7" r="5" fill="#16845B" stroke="#FFF9F0" stroke-width="3"/>
<text x="623.2" y="135.6" text-anchor="middle" class="value">Peak: ₹3.71 Cr</text>
<text x="105" y="512" class="sub">Source amounts localized at illustrative ₹95/USD</text>
</svg>